<svg width="124" height="16" viewBox="0 0 124 16" fill="none" xmlns="http://www.w3.org/2000/svg">
<g clip-path="url(#clip0_2121_166)">
<path d="M13.5401 9.18104C14.0497 9.67854 14.5875 10.1466 15.0445 10.6943C15.2464 10.9377 15.4375 11.1888 15.5838 11.4713C15.791 11.8728 15.6033 12.3146 15.2433 12.3386L13.0053 12.3376C12.4281 12.3855 11.9677 12.1531 11.5805 11.7584C11.2707 11.4428 10.9837 11.1069 10.6858 10.7807C10.5637 10.6473 10.4358 10.5219 10.2831 10.4227C9.97758 10.2244 9.71239 10.2851 9.53779 10.6037C9.35998 10.9278 9.31964 11.2867 9.3022 11.6479C9.27823 12.1749 9.11895 12.3134 8.58957 12.3375C7.45828 12.3909 6.38462 12.2197 5.38721 11.649C4.50789 11.1459 3.82601 10.4356 3.23248 9.63157C2.07687 8.06591 1.19193 6.34543 0.396615 4.57673C0.217582 4.17826 0.348521 3.96435 0.78818 3.95676C1.51828 3.94257 2.24825 3.9436 2.97919 3.95573C3.27591 3.96007 3.47235 4.13026 3.58695 4.41061C3.98195 5.38186 4.46529 6.30593 5.07195 7.16243C5.23352 7.39047 5.39824 7.6185 5.63286 7.779C5.8924 7.95672 6.08999 7.89781 6.21209 7.60872C6.28956 7.4254 6.32346 7.22797 6.34093 7.03162C6.39878 6.35615 6.4064 5.6818 6.30496 5.00873C6.24268 4.58864 6.00609 4.31673 5.58686 4.2372C5.37296 4.19667 5.4048 4.11707 5.50836 3.99498C5.68824 3.78441 5.85746 3.65332 6.19468 3.65332H8.72391C9.12207 3.73191 9.21051 3.91079 9.26501 4.31142L9.26717 7.1209C9.26282 7.27603 9.34464 7.73628 9.62401 7.83894C9.84761 7.91203 9.99498 7.73316 10.1291 7.59137C10.7347 6.94865 11.1669 6.18909 11.553 5.40255C11.7244 5.0567 11.8717 4.69755 12.0145 4.3387C12.1203 4.07242 12.2863 3.94135 12.5862 3.9472L15.0205 3.94935C15.0927 3.94935 15.1657 3.95042 15.2356 3.96238C15.6458 4.03229 15.7582 4.20876 15.6315 4.60929C15.432 5.23774 15.0435 5.76143 14.6638 6.28755C14.2579 6.84924 13.8237 7.39175 13.4211 7.95681C13.0513 8.47279 13.0806 8.73291 13.5401 9.18104Z" fill="white"/>
<path d="M8.21037 12.6652C7.07511 12.6652 6.09654 12.4219 5.22885 11.9255C4.403 11.453 3.68716 10.7841 2.97596 9.82067C1.96596 8.4521 1.08077 6.87506 0.105884 4.70726C-0.0304913 4.4037 -0.0351476 4.14823 0.0920094 3.94791C0.218979 3.74791 0.451324 3.64363 0.782607 3.63791C1.48499 3.62426 2.20546 3.62394 2.98446 3.63691C3.39334 3.64291 3.71228 3.87476 3.88194 4.28985C4.29391 5.30286 4.76819 6.18202 5.33198 6.97806C5.47313 7.17725 5.6191 7.38331 5.81279 7.51581L5.81373 7.51644C5.85032 7.54144 5.90057 7.52665 5.91789 7.4859L5.91845 7.48456C5.97223 7.35737 6.00551 7.20443 6.02342 7.00321C6.08764 6.25374 6.07695 5.63471 5.98973 5.05605C5.94557 4.7582 5.80307 4.60242 5.52745 4.55014C5.44917 4.53532 5.21082 4.49017 5.13082 4.26395C5.05176 4.04038 5.20691 3.85751 5.26535 3.78863C5.46717 3.55238 5.71885 3.33447 6.19467 3.33447H8.7239C8.7435 3.33447 8.76334 3.33616 8.78259 3.33991C9.41966 3.46444 9.52625 3.86688 9.58085 4.26832C9.58275 4.28248 9.58375 4.29676 9.58375 4.31104L9.58591 7.12053C9.58591 7.12359 9.58588 7.12665 9.58578 7.12975C9.58416 7.18809 9.59997 7.27122 9.62403 7.34753C9.65747 7.45343 9.79319 7.48365 9.86913 7.40256C9.86953 7.40212 9.86997 7.40165 9.87041 7.40122L9.89766 7.37222C10.5109 6.72137 10.934 5.94021 11.267 5.26198C11.441 4.91067 11.5912 4.54032 11.7185 4.22076C11.8774 3.82063 12.169 3.62135 12.5894 3.62838L15.0208 3.63054C15.1046 3.63054 15.1946 3.63188 15.2894 3.64813C15.4836 3.68122 15.7592 3.75341 15.9078 3.99695C16.0564 4.24045 15.9948 4.51782 15.9354 4.70526C15.7278 5.35902 15.3402 5.89546 14.9653 6.4143L14.9222 6.47399C14.7301 6.73984 14.5297 7.00418 14.3358 7.25981C14.1177 7.54737 13.8922 7.84475 13.6807 8.14163C13.5392 8.339 13.4777 8.47254 13.4867 8.56254C13.4959 8.6541 13.5835 8.77807 13.7626 8.95272C13.7626 8.95276 13.7627 8.95279 13.7627 8.95282C13.8958 9.08279 14.034 9.2137 14.1677 9.34029C14.548 9.70045 14.9412 10.0729 15.2892 10.49C15.4809 10.721 15.6989 11.0002 15.8668 11.3246C16.0278 11.6367 16.0302 11.9886 15.8733 12.2665C15.743 12.4972 15.521 12.6393 15.2644 12.6564C15.2573 12.6569 15.2503 12.6571 15.2432 12.6571C15.2432 12.6571 15.2431 12.6571 15.2431 12.6571L13.0179 12.6561C12.3986 12.7037 11.8387 12.4766 11.353 11.9815C11.1382 11.7627 10.9332 11.5334 10.735 11.3116C10.6419 11.2074 10.5456 11.0997 10.4504 10.9954C10.3564 10.8928 10.2421 10.776 10.1094 10.6898C10.0368 10.6426 9.97154 10.6201 9.93472 10.6293C9.90007 10.638 9.85616 10.6856 9.81722 10.7566C9.678 11.0104 9.63788 11.3025 9.62044 11.663C9.58938 12.3452 9.30438 12.6237 8.60397 12.6557C8.47084 12.662 8.33949 12.6652 8.21037 12.6652ZM0.638919 4.2952C0.642013 4.32092 0.652731 4.36895 0.687325 4.44592C1.6428 6.57062 2.50684 8.1115 3.4889 9.4421C4.14563 10.3319 4.79913 10.9452 5.54545 11.3722C6.40336 11.863 7.39405 12.0744 8.57456 12.0189C8.82022 12.0077 8.89384 11.9709 8.91587 11.95C8.93272 11.934 8.97297 11.8711 8.98381 11.6331C9.00262 11.244 9.04887 10.832 9.25834 10.4502C9.42006 10.155 9.63072 10.0485 9.77897 10.0111C9.92875 9.97336 10.168 9.96773 10.4566 10.1551C10.6494 10.2803 10.7994 10.4326 10.9208 10.5652C11.0186 10.6723 11.1161 10.7814 11.2103 10.8867C11.4036 11.1031 11.6035 11.3267 11.8079 11.5349C12.1682 11.9021 12.5407 12.0562 12.979 12.0196C12.9877 12.0189 12.9965 12.0186 13.0052 12.0186C13.0053 12.0186 13.0054 12.0186 13.0055 12.0186L15.2302 12.0196C15.2497 12.0172 15.2875 12.0073 15.3182 11.953C15.3557 11.8865 15.3736 11.7587 15.3005 11.6171C15.1606 11.3469 14.9686 11.1017 14.7992 10.8975C14.4757 10.5097 14.1132 10.1664 13.7294 9.80289C13.594 9.6747 13.4541 9.54214 13.3175 9.40885C12.7398 8.84535 12.6991 8.41669 13.1621 7.77084C13.3786 7.46693 13.607 7.16575 13.8279 6.87446C14.0196 6.62168 14.2178 6.36033 14.4055 6.10058L14.4487 6.0408C14.8099 5.54074 15.1512 5.06842 15.3278 4.51251C15.3629 4.40164 15.3633 4.34851 15.3616 4.33004C15.3459 4.3201 15.2981 4.29604 15.1821 4.27626C15.1363 4.26842 15.0772 4.26776 15.0205 4.26776L12.586 4.2656C12.584 4.2656 12.5821 4.2656 12.5801 4.26554C12.4368 4.26251 12.3767 4.28988 12.3107 4.4561C12.1788 4.78754 12.0228 5.17205 11.8386 5.54377C11.4852 6.26362 11.0329 7.09668 10.3611 7.80966L10.3357 7.83672C10.1929 7.98919 9.92697 8.27297 9.525 8.1416C9.52135 8.14038 9.51769 8.13913 9.51406 8.13781C9.07253 7.97556 8.94284 7.38375 8.94844 7.11687L8.94631 4.33329C8.93215 4.23388 8.90906 4.1067 8.86862 4.05288C8.85909 4.04023 8.83128 4.00323 8.69084 3.97173H6.19473C6.09295 3.97173 6.01961 3.98585 5.95454 4.01973C6.32089 4.18592 6.55345 4.51126 6.62023 4.96167C6.71499 5.59033 6.72717 6.25687 6.65852 7.05849C6.63449 7.32868 6.58595 7.54253 6.50567 7.73244C6.38123 8.02706 6.19648 8.13547 6.06336 8.17453C5.93029 8.21353 5.71642 8.22216 5.45279 8.04166C5.16504 7.84475 4.96919 7.5684 4.81188 7.34634C4.21941 6.50984 3.72219 5.58874 3.29172 4.53032C3.20059 4.30735 3.08025 4.27563 2.97456 4.27407C2.20258 4.2612 1.48964 4.26154 0.794389 4.27504C0.710888 4.27667 0.663294 4.2872 0.638919 4.2952Z" fill="white"/>
<path d="M2.04026 5.76347C1.92385 5.76347 1.81163 5.69947 1.75554 5.58847C1.70785 5.49412 1.6606 5.3995 1.61376 5.30468C1.53579 5.14687 1.60054 4.95571 1.75835 4.87777C1.91626 4.79977 2.10729 4.86459 2.18526 5.02237C2.23123 5.11543 2.27764 5.20831 2.32445 5.30093C2.40382 5.45803 2.34086 5.64972 2.18376 5.72916C2.13767 5.75244 2.08857 5.76347 2.04026 5.76347Z" fill="white"/>
<path d="M4.06742 9.11515C3.9697 9.11515 3.87323 9.07036 3.81073 8.98568C3.27142 8.25495 2.76776 7.46292 2.271 6.56426C2.18585 6.41023 2.24172 6.21629 2.39575 6.13113C2.54979 6.04601 2.74373 6.10182 2.82888 6.25589C3.31201 7.12992 3.80095 7.89905 4.32358 8.60711C4.42808 8.74874 4.39802 8.9483 4.25642 9.0528C4.19951 9.09493 4.13317 9.11515 4.06742 9.11515Z" fill="white"/>
</g>
<g clip-path="url(#clip1_2121_166)">
<path d="M46.9129 14.9303H41.0871C38.8817 14.9303 37.0876 13.1361 37.0876 10.9308V5.06887C37.0876 2.8635 38.8817 1.06934 41.0871 1.06934H46.9129C49.1183 1.06934 50.9124 2.8635 50.9124 5.06887V10.9308C50.9124 13.1361 49.1182 14.9303 46.9129 14.9303ZM41.0871 2.71294C39.788 2.71294 38.7311 3.76979 38.7311 5.06887V10.9308C38.7311 12.2299 39.788 13.2867 41.0871 13.2867H46.9129C48.212 13.2867 49.2688 12.2299 49.2688 10.9308V5.06887C49.2688 3.76979 48.212 2.71294 46.9129 2.71294H41.0871Z" fill="white"/>
<path d="M44 11.4292C42.1091 11.4292 40.5708 9.89081 40.5708 7.99999C40.5708 6.10912 42.1091 4.5708 44 4.5708C45.8908 4.5708 47.4291 6.10915 47.4291 7.99999C47.4292 9.89084 45.8908 11.4292 44 11.4292ZM44 6.17405C42.9932 6.17405 42.174 6.99316 42.174 7.99999C42.174 9.00683 42.9931 9.82594 44 9.82594C45.0068 9.82594 45.8259 9.00683 45.8259 7.99999C45.8259 6.99316 45.0068 6.17405 44 6.17405Z" fill="white"/>
<path d="M47.5099 5.09511C47.1761 5.09511 46.9044 4.82353 46.9044 4.48969C46.9044 4.15586 47.1761 3.88428 47.5099 3.88428C47.8437 3.88428 48.1153 4.15586 48.1153 4.48969C48.1153 4.82353 47.8437 5.09511 47.5099 5.09511Z" fill="white"/>
<path d="M46.9129 15.2179H41.0871C38.7232 15.2179 36.8 13.2947 36.8 10.9308V5.06884C36.8 2.7049 38.7232 0.781738 41.0871 0.781738H46.9129C49.2768 0.781738 51.2 2.7049 51.2 5.06884V10.9308C51.2 13.2947 49.2768 15.2179 46.9129 15.2179ZM41.0871 1.35687C39.0403 1.35687 37.3751 3.02202 37.3751 5.06881V10.9308C37.3751 12.9776 39.0403 14.6427 41.0871 14.6427H46.9129C48.9597 14.6427 50.6248 12.9776 50.6248 10.9308V5.06884C50.6248 3.02204 48.9597 1.3569 46.9129 1.3569H41.0871V1.35687ZM46.9129 13.5743H41.0871C39.6294 13.5743 38.4436 12.3884 38.4436 10.9308V5.06884C38.4436 3.61119 39.6294 2.42537 41.0871 2.42537H46.9129C48.3706 2.42537 49.5564 3.61122 49.5564 5.06884V10.9308C49.5564 12.3884 48.3706 13.5743 46.9129 13.5743ZM41.0871 3.00047C39.9466 3.00047 39.0187 3.92833 39.0187 5.06881V10.9308C39.0187 12.0713 39.9466 12.9991 41.0871 12.9991H46.9129C48.0534 12.9991 48.9813 12.0713 48.9813 10.9308V5.06884C48.9813 3.92836 48.0534 3.0005 46.9129 3.0005H41.0871V3.00047Z" fill="white"/>
<path d="M44 11.7168C41.9505 11.7168 40.2832 10.0494 40.2832 8C40.2832 5.95055 41.9505 4.2832 44 4.2832C46.0494 4.2832 47.7167 5.95055 47.7167 8C47.7167 10.0494 46.0494 11.7168 44 11.7168ZM44 4.85836C42.2677 4.85836 40.8584 6.26769 40.8584 8C40.8584 9.73228 42.2677 11.1416 44 11.1416C45.7322 11.1416 47.1416 9.73228 47.1416 8C47.1416 6.26769 45.7323 4.85836 44 4.85836ZM44 10.1135C42.8346 10.1135 41.8865 9.16538 41.8865 8C41.8865 6.83462 42.8346 5.88649 44 5.88649C45.1653 5.88649 46.1135 6.83462 46.1135 8C46.1135 9.16538 45.1654 10.1135 44 10.1135ZM44 6.46162C43.1517 6.46162 42.4616 7.15173 42.4616 8C42.4616 8.84826 43.1517 9.53837 44 9.53837C44.8482 9.53837 45.5383 8.84826 45.5383 8C45.5383 7.15171 44.8482 6.46162 44 6.46162Z" fill="white"/>
<path d="M47.5099 5.38272C47.0175 5.38272 46.6169 4.98215 46.6169 4.48971C46.6169 3.99728 47.0175 3.59668 47.5099 3.59668C48.0023 3.59668 48.4029 3.99731 48.4029 4.48971C48.4029 4.98212 48.0023 5.38272 47.5099 5.38272ZM47.5099 4.17184C47.3346 4.17184 47.192 4.31442 47.192 4.48971C47.192 4.66498 47.3346 4.80756 47.5099 4.80756C47.6852 4.80756 47.8277 4.66498 47.8277 4.48971C47.8278 4.31445 47.6852 4.17184 47.5099 4.17184Z" fill="white"/>
<path d="M43.5398 14.4125H40.8366C40.6778 14.4125 40.5491 14.2838 40.5491 14.125C40.5491 13.9661 40.6778 13.8374 40.8366 13.8374H43.5398C43.6987 13.8374 43.8274 13.9661 43.8274 14.125C43.8274 14.2838 43.6987 14.4125 43.5398 14.4125Z" fill="white"/>
<path d="M44.6326 14.4125H44.4601C44.3013 14.4125 44.1725 14.2838 44.1725 14.125C44.1725 13.9661 44.3013 13.8374 44.4601 13.8374H44.6326C44.7914 13.8374 44.9202 13.9661 44.9202 14.125C44.9202 14.2838 44.7914 14.4125 44.6326 14.4125Z" fill="white"/>
</g>
<path d="M76.4699 8.46924H78.0323V14.9675C78.0323 15.0958 78.1352 15.1998 78.2622 15.1998H80.9113C81.0383 15.1998 81.1412 15.0958 81.1412 14.9675V8.49985H82.9373C83.0541 8.49985 83.1524 8.4113 83.1657 8.29413L83.4385 5.90179C83.446 5.83598 83.4253 5.77004 83.3818 5.72068C83.3381 5.67127 83.2757 5.64297 83.2101 5.64297H81.1413V4.14334C81.1413 3.69128 81.3822 3.46204 81.8574 3.46204C81.9251 3.46204 83.2101 3.46204 83.2101 3.46204C83.3371 3.46204 83.44 3.35805 83.44 3.22978V1.03379C83.44 0.90549 83.3371 0.801533 83.2101 0.801533H81.3459C81.3328 0.800888 81.3036 0.799805 81.2606 0.799805C80.9371 0.799805 79.8128 0.863954 78.9247 1.6894C77.9406 2.60413 78.0774 3.69936 78.1101 3.88926V5.64288H76.4699C76.3429 5.64288 76.24 5.74684 76.24 5.87514V8.23692C76.2401 8.36525 76.343 8.46924 76.4699 8.46924Z" fill="white"/>
<path d="M80.8286 15.1998H78.2589C77.9778 15.1998 77.7491 14.9711 77.7491 14.69V8.73738H76.5203C76.2392 8.73738 76.0105 8.50864 76.0105 8.22748V5.95978C76.0105 5.67865 76.2392 5.44993 76.5203 5.44993H77.8245V4.07631C77.7814 3.79849 77.6835 2.67172 78.7073 1.7297C79.6452 0.866883 80.8274 0.799805 81.1674 0.799805C81.2095 0.799805 81.2395 0.800733 81.2567 0.801464H83.0586C83.3397 0.801464 83.5684 1.03018 83.5684 1.31131V3.41976C83.5684 3.7009 83.3397 3.92961 83.0586 3.92961H81.7464C81.4036 3.92961 81.3386 4.0587 81.3386 4.29692V5.44996H83.0586C83.2037 5.44996 83.3424 5.51212 83.4391 5.62048C83.5358 5.72891 83.5816 5.87386 83.565 6.01817L83.3004 8.3152C83.2708 8.57263 83.053 8.76677 82.7939 8.76677H81.3384V14.6899C81.3385 14.9711 81.1098 15.1998 80.8286 15.1998ZM78.3227 14.6261H80.7648V8.47995C80.7648 8.32153 80.8932 8.19311 81.0516 8.19311H82.737L82.9869 6.02374H81.0517C80.8933 6.02374 80.7649 5.89532 80.7649 5.73689V4.29701C80.7649 3.70779 81.1318 3.356 81.7465 3.356H82.9948V1.37519H81.2503C81.2456 1.37519 81.2408 1.37507 81.2361 1.37485C81.2317 1.37462 81.2077 1.37355 81.1674 1.37355C80.8799 1.37355 79.8809 1.42969 79.0957 2.15197C78.2557 2.9249 78.3638 3.83025 78.394 4.00392C78.3968 4.02014 78.3982 4.0366 78.3982 4.05305V5.73681C78.3982 5.89524 78.2698 6.02366 78.1114 6.02366H76.5842V8.16369H78.0359C78.1943 8.16369 78.3227 8.29211 78.3227 8.45053V14.6261Z" fill="white"/>
<path d="M78.9002 11.1839C78.7418 11.1839 78.6134 11.0555 78.6134 10.8971V10.7536C78.6134 10.5952 78.7418 10.4668 78.9002 10.4668C79.0586 10.4668 79.1871 10.5952 79.1871 10.7536V10.8971C79.1871 11.0555 79.0586 11.1839 78.9002 11.1839Z" fill="white"/>
<path d="M78.9002 14.2821C78.7418 14.2821 78.6134 14.1537 78.6134 13.9952V11.8152C78.6134 11.6567 78.7418 11.5283 78.9002 11.5283C79.0586 11.5283 79.1871 11.6567 79.1871 11.8152V13.9952C79.1871 14.1536 79.0586 14.2821 78.9002 14.2821Z" fill="white"/>
<path d="M123.183 4.25079C123.01 3.60818 122.504 3.10162 121.861 2.92859C120.687 2.60742 115.992 2.60742 115.992 2.60742C115.992 2.60742 111.297 2.60742 110.123 2.91641C109.493 3.08926 108.974 3.60828 108.801 4.25079C108.492 5.4245 108.492 7.85861 108.492 7.85861C108.492 7.85861 108.492 10.305 108.801 11.4664C108.974 12.1089 109.481 12.6155 110.123 12.7885C111.309 13.1098 115.992 13.1098 115.992 13.1098C115.992 13.1098 120.687 13.1098 121.861 12.8008C122.504 12.6279 123.01 12.1213 123.183 11.4788C123.492 10.305 123.492 7.87097 123.492 7.87097C123.492 7.87097 123.504 5.4245 123.183 4.25079ZM114.497 10.1073V5.60989L118.401 7.85861L114.497 10.1073Z" fill="white"/>
<defs>
<clipPath id="clip0_2121_166">
<rect width="16" height="16" fill="white"/>
</clipPath>
<clipPath id="clip1_2121_166">
<rect width="16" height="16" fill="white" transform="translate(36)"/>
</clipPath>
</defs>
</svg>
